<svg width="300" height="200" viewBox="0 0 300 200" fill="none" xmlns="http://www.w3.org/2000/svg"><path fill-rule="evenodd" clip-rule="evenodd" d="M0 199h300v-73H0v73Z" fill="#0F0F0F"/><path d="M275 140h-25v45h14v-9h22v-36h-11Zm-11 13h8v10h-8v-10Zm-34-13h-14v45h31v-13h-17v-3h8l3-13h-11v-3h17v-13h-17Zm-53 0v45h36v-36h-22v-9h-14Zm14 23h8v9h-8v-9Zm-31-23-10 14-10-14h-14v45h14v-25l10 14 10-14v25h14v-45h-14Zm-54 0H92v45h31v-13h-17v-3h7l4-13h-11v-3h17v-13h-17Zm-28 0H53v45h14v-9h22v-36H78Zm-11 13h8v10h-8v-10Zm-25-13H14v45h14v-32h8v32h14v-45h-8Z" fill="url(#a)"/><path d="M0 0v126h300V0H0Z" fill="url(#b)"/><path d="M252 24v39h-13V24H128l-23 36V24H81L65 49 48 24H24v77h24V59l17 24 16-24v42h24l10-16h27v16h23V47h14v54h23V47h13v38h37v16h24V24h-24ZM142 44v19h-12l12-19Z" fill="url(#c)"/><defs><linearGradient id="a" x1="38.5" y1="98.1" x2="257.5" y2="224.8" gradientUnits="userSpaceOnUse"><stop stop-color="#FBE466"/><stop offset="0" stop-color="#FBE466"/><stop offset="1" stop-color="#D49E31"/></linearGradient><linearGradient id="b" x1="10.1" y1="144" x2="289.6" y2="-17.8" gradientUnits="userSpaceOnUse"><stop stop-color="#D49E31"/><stop offset="0" stop-color="#D49E31"/><stop offset="1" stop-color="#FBE466"/></linearGradient><linearGradient id="c" x1="24.2" y1="62.8" x2="276" y2="62.8" gradientUnits="userSpaceOnUse"><stop stop-color="#F1F2F2"/><stop offset="0" stop-color="#F1F2F2"/><stop offset="1" stop-color="#F8F8F9"/></linearGradient></defs></svg>