<svg width="204" height="238" viewBox="0 0 204 238" fill="none" xmlns="http://www.w3.org/2000/svg"><path fill-rule="evenodd" clip-rule="evenodd" d="M106 217v21h25v-21h-5v16h-4v-11h-6v11h-4v-16h-6ZM155 217v21h-6v-11h-7v11h-6v-21h6v5h7v-5h6ZM174 217h5v21h-5v-12l-8 12h-5v-21h5v11l8-11ZM75 238h-5v-12l-4 7h-6l-3-7v12h-6v-21h6l6 11 6-11h6v21ZM87 217h7l8 21H79l8-21Zm0 16h7l-3-9-4 9ZM185 217h6v11l7-11h6v21h-6v-12l-7 12h-6v-21Zm10-11a4 4 0 1 1 0 8 4 4 0 0 1 0-8ZM36 217a10 10 0 1 1 0 21 10 10 0 0 1 0-21Zm-5 10c0 3 2 5 5 5s5-2 5-5c0-2-2-4-5-4-2-1-5 2-5 4ZM103 0a100 100 0 0 1 0 201H0V0h103Zm-8 58a42 42 0 1 1 0 84 42 42 0 0 1 0-84ZM11 217a10 10 0 0 1 0 21H0v-21h11Zm-1 6a4 4 0 1 1 0 9 4 4 0 0 1 0-9Z" fill="#CA1B52"/></svg>