<svg width="259" height="300" viewBox="0 0 259 300" fill="none" xmlns="http://www.w3.org/2000/svg"><path d="m101.2 2.2 58-2.2-.5 17.2c-.5 12.9-1.2 25.7-2 38.6l3.7-1.4c11-.6 21.9-1.5 32.9-1.8-.6 10.7-1.8 21.4-2.7 32.1 10.1 5.4 19.2 12.6 27 21A136 136 0 0 1 234 127c1.4-2.2 3.6-4.2 6.3-4.6 3.5-.6 7 1.3 9.3 3.7a16 16 0 0 1 4.5 8.6c.3 1.4 0 3 0 4.5l-.6 11.4a8 8 0 0 1 4.3 3.6c1.6 3 1.3 6.7.4 9.9-.8 2.8-2 5.7-4 7.8 1.7.6 3 2.1 3.4 4 .8 3.2 0 6.5-.6 9.6-1.3 5.4-1.8 10.9-2.8 16.3-.5 3.5-1.2 7-1.9 10.5.5 6.4.4 12.7.4 19.1.2 3 0 6-1.3 8.8-1 2.1-3 3.7-5.3 4.4-3.4 1-7 1.6-10.4 2.5a123.5 123.5 0 0 1-44.1 39 120.3 120.3 0 0 1-65.8 13.6 130 130 0 0 1-35.6-6.3A108 108 0 0 1 59.4 277c-3 .1-5.9 0-8.8-.2-4-.2-8-.3-11.8-1.4a26 26 0 0 1-7-3 23.2 23.2 0 0 1-9-12c-1-2.6-1.2-5.4-1.7-8L15 217.2c-4-1.2-7.5-3.5-10-6.7-3.4-4-5.2-9.4-5-14.7 0-3 .7-5.8 2.3-8.3 1-1.5 2.4-2.7 4.2-3.2-3-2.1-4.2-6-5-9.4-2-10.7.8-22.2 7.2-31 5-7 12-12 19.9-15.3 1.6-3.8 3.5-7.6 6-11 2.7-3.7 6-7 9.2-10.3-2.7-3.7-5.8-7-8.7-10.5L14 73.3l19.5-27.6C52.7 42.6 72 39.6 91 36.3c-3-5-5.6-10-8-15.3C89.2 14.8 95 8.4 101.3 2.2Z" fill="#DE001C"/><path d="m102.6 8 52.7-2c-1 13.3-1.4 26.6-2 39.9l-.9 17.5 8.3-4.4c9.6-.5 19.3-1.2 29-1.5-1 9.6-2.3 19.2-3.2 28.8a111.8 111.8 0 0 1 48.6 51.6l1-.5c.3-2.5-.1-5.2 1.2-7.4a5.5 5.5 0 0 1 4.3-2.9c2.1-.2 4.3.7 5.8 2.1 2.2 2.1 3 5.3 3 8.2l-1.6 16.5c.8-.5 2-1 3-.4 1.5 1 2.1 2.9 3 4.5.5 1.5.3 3.2 0 4.8-.6 2.8-1.5 5.6-3.3 7.9-.4.7-1.2 1.1-1.9 1.5 1.1.5 2.4 1 3.2 2 1.1 1.4 1.4 3.4 1.2 5.1-2.1 11.4-3.9 22.8-6 34.1.2 6.2.5 12.4.5 18.6-.2 1.8 0 3.7-.4 5.5-.9 2.6-3.4 4.3-6 5-9.4 2.7-19 5-28.5 7.4a89.7 89.7 0 0 1-16.8 19.4 115 115 0 0 1-24 15.6 20.3 20.3 0 0 1-8.5 2.5c-.7 0-1.5 0-2-.6-.2-1 .7-1.7 1.3-2.3 3.1-2.4 5.1-6 6.5-9.5 1-2.6 2-5.3 2-8.1.1-2.7-1.8-5.3-4.3-6.2-1.8-.7-3.7-.7-5.6-.4-35.2 6-70.9 10.3-106.6 11.7-3.2.1-6.3.3-9.5.3a20.3 20.3 0 0 1-19-13.9c-1.1-2.8-2-5.6-2.5-8.6l-3.6-21c-.6-4-1.3-8.1-1.2-12.2 0-1 .6-2 1.3-2.7-3 .3-6.2-.4-8.7-2.1-3.4-2.4-5.7-6-7.1-10-1-3-1.7-6.3-1-9.5a6.6 6.6 0 0 1 3.3-4.6c1.8-1 4-.9 6-.5a12.5 12.5 0 0 1-6.7-7.4 36.6 36.6 0 0 1 2.9-28.5c2.5-4.8 5.8-9.2 10.1-12.6a42.3 42.3 0 0 1 22.8-8.4c2.2-.1 4.4-.5 6.6 0 .7-2.6 1.2-5.4 2.6-7.9 1.4-2.8 3.2-5.5 5-8.2-6.2-7.3-12.7-14.3-19-21.5-5.8-6.6-11.7-13.1-17.3-19.9l9.8-14.2C32.2 56 34 53.4 36 51l39.5-6c7.4-1 14.7-2.1 22-3.4L88.8 22l5.5-4.9c3.2-2.6 5.6-6 8.3-9Z" fill="#000"/><path d="M37.6 209.7c2.3 0 4.7-.6 7 .3 3.7 1.3 6 5 6.9 8.8l1.1 8.3c.3 1-.3 2.5-1.5 2.7l-6 .6c-1 .2-1.6-.7-1.7-1.5l-1.3-8.1c-.2-1-1-1.8-2-2a8 8 0 0 0-2 0c-1.5.3-2.5 1.8-2.2 3.2 1.7 10.5 3.5 21 5.7 31.4.2 1 .8 2 1.7 2.6.9.6 2 .3 2.9.4 1.3 0 2.3-1.4 2-2.6l-1.7-7.3c-.2-1 .2-2.2 1.2-2.4l5.8-.4c.7-.1 1.5.3 1.7 1 1.3 3 2 6.3 2.6 9.6.4 2.8-.3 5.8-2.3 7.8a7.6 7.6 0 0 1-5.7 2.5c-2.5 0-5.2.4-7.6-.6a15.1 15.1 0 0 1-7.7-8c-1.2-2.5-1.6-5.2-2.2-7.8-1.9-8.6-3.4-17.4-4.3-26.2-.4-3.5.8-7.2 3.4-9.7 1.7-1.6 4-2.5 6.2-2.6Zm30.6 4.3c-1.5.4-2.7 1.8-2.5 3.3 1.7 11.3 3.6 22.6 5.7 33.8.2 1.3.8 2.6 2 3.2 1 .7 2.3.4 3.4.4s2.3-.6 2.7-1.7c.4-1 .2-2 0-3.1-2-11-4-21.9-5.6-32.8-.2-1.1-.7-2.2-1.7-2.8-1.2-.7-2.7-.6-4-.3Zm2-10.3c3.7-.5 7.7.4 10.7 2.7 2.5 2 4.2 5 4.7 8 1.8 11.7 3.7 23.3 5.8 34.9.4 3.3-.1 6.8-2 9.6a10.7 10.7 0 0 1-6.2 4.5c-1.6.4-3.2.4-4.8.5-2.2 0-4.4.3-6.6-.3a16 16 0 0 1-11.2-12.4c-2-10.3-3.7-20.6-5.3-30.9-.7-3.9.2-8.1 2.6-11.3 1.8-2.5 4.6-4.2 7.6-4.7l4.6-.6Zm60.5-8.3 6.5-1 8.6 62L133 258l-4.2-26.7-7.3 17.5-2.5.4-12.5-15.5c1.4 9 3 17.9 4.6 26.8l-12.4 1c-2.5-12.6-4.8-25.3-6.8-38-1.2-7.3-2.2-14.8-3-22.3h.2l5.9-1c7.2 9.5 14.4 18.9 21.8 28.2l14-33.1Zm12.9-1.9c11.5-1.4 23-3 34.6-4.6.6 3.5 1 7 1.7 10.4l-21.5 2.8 2.3 15.5 19.7-3 1.2 10.4-19.4 3 2 16 22.2-3.7 1.2 9.7c-11.8 2-23.5 3.9-35.3 5.4l-8.7-61.9ZM197 197c1.8 13.5 3.4 27 4.8 40.6l5-.9c.7 0 1.6-.3 2.2-1 1-.9 1.3-2.3 1.1-3.6a1317 1317 0 0 0-4-32.5c-.2-1.8-1.7-3.3-3.6-3.3l-5.5.7Zm-13.7-8.6 19.3-2c3-.4 6.2.3 8.7 2 3 2.2 5.2 5.6 6.1 9.2 1.3 9.7 2.4 19.5 3.4 29.3.2 2.4.7 4.7.2 7-.8 4.6-4 8.5-8.2 10.4-2.2 1.2-4.7 1.6-7.2 2.2l-14.7 3.2c-2.3-20.5-4.8-40.9-7.6-61.3ZM237 183l9.6-.5a845.2 845.2 0 0 1-5.6 30.3c-.2.6-.4 1.3-.3 2 .5 7.7.9 15.4 1.1 23.1l-9 2.3c-.3-7.3-.8-14.5-1.3-21.7 0-.6 0-1.3-.3-1.8-5.2-10.6-10.5-21.2-16-31.7l11.4-1c2.8 5.7 5.5 11.4 8 17.2 1-6 1.7-12.1 2.4-18.2ZM135 137.4l6.4-.3.8 5.4-6.2.8-1-5.9Zm9.8-.5 6-.3.6 4.8-6 .7c-.1-1.8-.4-3.5-.6-5.2Zm17.7 0 14-1-.4 3.4c-4.6.3-9.1.8-13.7 1.2l.1-3.5Zm-122.9-2c5.3-.7 11-.9 16 1.5 3.2 1.7 6.3 4.2 8 7.6a17 17 0 0 1 1 11.3c-1.2 5.7-4 11.2-8.6 15a35.4 35.4 0 0 1-11.8 6 74.8 74.8 0 0 1-3.9 17.1 35.8 35.8 0 0 1-6.2 10.8c-2.7 3-6.4 5.3-10.4 5.9-4 .6-8-1.1-10.7-4a17.5 17.5 0 0 1-3.4-7.6 11 11 0 0 1 0-5.6c.3-1 1.1-2 2.3-2.1 1.2-.1 2.2.7 2.8 1.7a7 7 0 0 1 .2 5c-.6 1.9-.7 4 .2 6 .9 1.6 2.8 2.5 4.6 2.5a9 9 0 0 0 5.7-1.9c3-2.3 4.5-6 5.7-9.4 2-6.2 3-12.7 4.3-19.1 1.1-5.7 2-11.6 4.2-17a22 22 0 0 1 8.8-11.1 60 60 0 0 0-3.4 13.8c-.5 3.3-.6 6.5-.7 9.8 3.5-1.2 6.4-3.8 8.2-7 1.9-3.4 2.8-7.3 3.1-11.2.3-3.2-.1-6.6-1.8-9.4a8.7 8.7 0 0 0-4.4-3.5 25.4 25.4 0 0 0-24.4 6.6 41.2 41.2 0 0 0-9.5 21.5c-.5 2.9-.5 6 .6 8.8.8 2 2.8 3.5 5 3.5 1.3-.1 2.5-.4 3.6-1 1-.6 1.6-1.6 1.7-2.6-.5-2-1-4.3 0-6.2 1-1.6 3.6-1.5 4.5 0 1.4 1.8.8 4.3.3 6.4-.8 3.2-3.5 5.6-6.5 6.8-1.4.6-2.9 1.3-4.4 1a10 10 0 0 1-7-4.6 21.8 21.8 0 0 1-3-9.5c-.5-4.8.8-9.5 2.6-13.8a37 37 0 0 1 8.7-12.6c5-4.7 11.2-8.5 18-9.4Zm25 42c-1.5 2.9-3.2 6.2-2.4 9.6 1.1.7 2.6.2 3.5-.8 1.5-1.8 2.2-4.1 3-6.3.7-1.9 2-3.4 2.7-5.2.7-1.4 1.3-3.2.5-4.7-3.5 1-5.6 4.3-7.2 7.3Zm45.9-11.7c-2.1 2.2-3.2 5-4.7 7.6-1.4 2.3-2.7 5-1.9 7.7a4 4 0 0 0 4.3-1.2c2.4-2.9 2.8-6.7 4.6-10 .9-1.8 2-4 1.2-6.2a7.6 7.6 0 0 0-3.5 2.1ZM179 153c-1.4 1-2 2.7-2.8 4.3-1 2.3-1.7 4.6-2.4 7-1 3.1-1.7 6.6-.5 9.8 1.4.5 2.8-.2 3.7-1.3 1.8-2.2 2.7-5 3.6-7.7.9-2.6 2-5.2 2.3-8 0-1.4-.3-3-1.3-4.1-.7-.8-1.9-.6-2.6 0Zm61.8-18c0-1.2 1-2.3 2.1-2.2 1.1 0 1.9 1 2 2.1.6 2.3-.4 4.6-.1 6.9 0 1 1.3 1 1.7 1.9.3.8.3 2-.6 2.4-.6.2-1.3.2-2 .3-1.3 5.7-2 11.5-3 17.3 0 1-.2 2.3.3 3.3.6 1 2 .7 2.7.1 1.3-1 1.7-2.7 2.3-4.2.2-.6.7-1.3 1.4-1 .8.6.7 1.7.5 2.6-.7 2-1.3 4.3-2.9 6-1.1 1.2-2.8 2.1-4.5 1.7-2.4-.5-4.1-2.5-5.2-4.5-2 1.4-3.9 2.8-6.2 3.4-1 .3-2 0-2.7-.8a5.5 5.5 0 0 1-1.5-4.4c.2-2.3 1.3-4.4 1.8-6.7.7-2.7 2-5.4 1.6-8.3 0-.7-.7-1.1-1.3-.9-1.1.5-2 1.5-2.6 2.5-3 5.7-4 12.2-5.9 18.3-.4 1.1-1 2.5-2.3 2.7-1.7.2-2.7-1.4-4.2-1.8-1-.3-1.8.5-2.4 1.1-.8.8-1.8 2-3 1.6-1.8-.3-2.8-1.8-4.2-2.6-1 .6-1.5 1.7-2.4 2.4a9.7 9.7 0 0 1-5.5 2.7c-1.4 0-2.7-1-3.7-2-1.5-1.5-1.5-3.8-1-5.8.5-2.8 1.5-5.5 2.2-8.2.3-1 .4-2.4-.7-2.9-1.4 0-2 1.5-2.3 2.6-1 4.8-2.9 9.5-6 13.3a21 21 0 0 1-6 5c-2 1.2-4.3 1.9-6.6 1.5-1-.1-2-.4-2.8-1-.9-.8-1.7-2-3-2-2.5.6-4 2.7-6.2 4a7 7 0 0 1-5.8.4c-1.4-.6-2.2-2.2-2.3-3.7 0-2.2.6-4.4 1.2-6.5.7-2.6 1.3-5.3 1.8-8 .2-1 .7-2.2-.2-3-1-1-2.5.1-3 1.2-1.7 6-3.2 11.9-5.4 17.7-.8 2.2-2.7 4.2-5.2 4.5-2.1-.2-3.7-2.5-3.4-4.6.2-1.3.7-2.6 1.1-3.9 1.4-4.3 2.4-8.7 3.4-13 .2-.5 0-1.2-.6-1.2-1.5.1-2.8 1.3-3.5 2.5-2.2 5.7-4.2 11.5-6 17.3-.3 1.4-.8 2.8-2 3.6-1.7 1.3-4.2.5-5.3-1.1-2.9.4-4.4 3.5-7.3 4-2.3.2-4.4-1.6-5-3.7-1.6 2.2-3.8 4.3-6.6 5-1.7.4-3.7.9-5.4 0-1.8-.8-3-2.6-3.2-4.5a24 24 0 0 1 2-11.5c-.8.2-1.8.3-2.6-.2-1-.6-1.5-1.7-2-2.8-.5.5-1.4.8-1.7 1.6-2.3 5.3-4.3 10.7-6.3 16.2-.3 1-.6 2.2-1.5 3-.8 1-2.3 1.3-3.3.6-1-.7-1.2-1.8-1.2-2.8-1.1.9-2.3 1.7-3.3 2.7-1.2 1-2.8 1.8-4.3 1.5-1.6-.5-1.6-2.7-3.2-3.3-1 .8-1.2 2.1-2 3a6.8 6.8 0 0 1-5.4 2c-1.6 0-3.1-.8-4-2.1a14 14 0 0 1-1-10.7 39 39 0 0 1 6.1-10.4c2.6-3.5 6.2-6 10.2-7.7 1.7-.7 3.6-1.6 5.5-1.1.9.4 1.4 1.4 1.5 2.4.2 2.6-.8 5.1-1.7 7.5-1 2.8-1.6 5.7-2.3 8.6-.2 1-.2 2 .6 2.8 2.6-1 4.5-3.2 5.7-5.6 2-4.2 2.7-9 4.4-13.4.8-1.9 2.3-4 4.6-4 1.5.3 2.3 2 2.5 3.4 1.4-1.3 2.4-2.8 3.8-4 .8-.8 2-1.4 3-1.2 1.1.1 1.7 1.3 1.7 2.3 0 1.2-.5 2.4-1 3.6 0 .5 0 1 .2 1.3 1.1 0 2-.7 2.6-1.5a25 25 0 0 1 12.7-8.4c1.8-.5 4-.8 5.6.2 1.4.8 1.6 2.5 1.6 4 0 3.9-2 7.4-3.3 11.1-.6 2-1.2 4-1.3 6.1-.1.7.3 1.4 1 1.4 1.8-.7 3.7-2 4.4-4 2.2-6 4-12 6.2-18a6.5 6.5 0 0 1 4-3.8c.5-.2 1.2-.3 1.8 0 1.4.6 2 2.4 3.7 2.7 1.5 0 1.8-1.7 2.8-2.5 1.3-1 3-1.7 4.6-1.5 1 0 1.8.6 2.3 1.3.8 1 2 1.8 3.1 1.5 1.3-.5 1.8-2 3-2.6a6.8 6.8 0 0 1 4.2-1.3c1.7.1 3.2 1.5 3.7 3.1.4 1.6.1 3.3-.3 4.8-1.2 5-2.7 10-3.8 15 1.5.5 2.6-.9 3.3-2 1.1-1.5 1.5-3.3 2-5 1.3-4 2.6-8 4.8-11.5 1.9-3.1 4.6-5.7 7.9-7.1a9.2 9.2 0 0 1 4.9-1c2.3.2 4.6 1.6 5.4 3.9.4.9 1 2 2 2.4 1 .2 1.9-.3 2.7-.8 2-1.6 2.3-4.6 4.5-6 1-.7 2.7-.4 3.4.7.7 1 1 2.4.6 3.6l-1.2 6.3c-.6 3-1.6 5.9-1.9 8.9 0 .7.3 1.8 1.2 1.8 1-.1 1.9-1 2.4-1.8 3.2-5.3 4.2-11.4 5.5-17.3.4-1.7 1.9-3 3.6-3 1.6 0 2.9 1.5 2.6 3-1 5-2.6 9.7-3.6 14.6-.1 1-.3 1.9 0 2.7.2.7 1 1 1.6.7 1-.5 1.4-1.7 2-2.7 2.5-5.1 4-10.7 5.5-16.1.2-.9.4-1.8 1-2.5.7-1 2.2-1.5 3.3-.9.6.4 1 1.1 1.2 1.8.6.2 1.3.3 1.8-.2 1-.8 1.8-2 3.2-2.5 1.4-.3 3.2 0 4.2 1.3.9 1.3.8 3 .7 4.6a86 86 0 0 1-1.7 10.7c-.3 1.5-1.1 3-.7 4.5 1 0 1.4-.8 2-1.3.7-.7 1.2-1.6 1.6-2.4 2.6-4.3 2.7-9.6 3.3-14.5-.9-.4-1.9-1.1-1.9-2.3 0-.6.5-1 1-1.3.6 0 1.3 0 1.8-.2 1.1-2.5 1.1-5.2 1.3-7.8Zm-108-8.9c2.4 0 4.7-.2 7-.3l1 6.5-6.8.4-1.1-6.6Zm10.3-.5 6.4-.3.7 6.6-6.1.4-1-6.7Zm19.7-1.9 15.2-1.2-.8 7.3-14.6 1.3.2-7.4Zm-32.1-10.2 7.4-.4 1 7.4-7.1.5c-.5-2.5-1-5-1.3-7.5Zm10.8-.6c2.4 0 4.7-.2 7-.3.3 2.4.4 4.9.6 7.4-2.2 0-4.4.2-6.6.4l-1-7.5Zm21.6-3.4c5.5-.5 11-1 16.6-1.3l-.8 7.2-16 1.4.2-7.3Zm-34.7-9.4 8-.4c.4 2.7.8 5.5 1 8.2l-7.6.4-1.4-8.2Zm11.4-.6 8.1-.4.4 8.2c-2.5 0-5 .3-7.5.4a571 571 0 0 0-1-8.2Zm23.6-4.3 18-1.4-.9 7.2-17.2 1.6V95Zm-37.7-9.9 9-.5 1 8.4-8.4.5-1.6-8.4Zm12.4-.7 9.5-.5.1 8.4-8.7.5-1-8.4Zm25.7-3.7 19.2-1.5-.9 7.2-18.5 1.7c0-2.5 0-5 .2-7.4Zm-40.9-10.4 10-.6 1 8.4-9.4.6-1.6-8.4Zm13.6-.8c3.8-.1 7.5-.3 11.2-.6l-.1 8.4-10.2.6-.9-8.4Zm27.6-3.8 20.6-1.7-.9 8-19.9 1.8.2-8ZM40.6 55l6.8-1c12.7 16 24.3 33 34.4 51a266 266 0 0 1 19.8 43.9l-4.2.8a229.2 229.2 0 0 0-29-57c-8.8-13-18.1-25.5-27.8-37.7Zm79-2.2 11.5-.6 1 9-10.8.7c-.6-3-1.3-6-1.7-9Zm-67.8.5 7-1C71 69.5 81.9 87.6 91 106.5a329 329 0 0 1 17 41.2l-3 .5C98 128.6 88.6 109.8 78 92c-8-13.4-16.8-26.3-26.3-38.6ZM135 52l13.3-.7-.3 9-12.3.7-.7-9Zm-71.6-.4 8.4-1.2a528.3 528.3 0 0 1 27.9 54 306 306 0 0 1 15 42.1l-3.2.5a365.2 365.2 0 0 0-25.7-58.5c-6.9-12.6-14.3-25-22.4-37Zm12.5-1.8c2.9-.5 5.8-1 8.7-1.3 10 19.7 19 39.8 26.4 60.7 4.2 11.8 7.8 24 10.5 36.2l-3.3.5a385.9 385.9 0 0 0-24.4-63 443.3 443.3 0 0 0-18-33.1Zm12.3-1.9 9.2-1.3c8.2 20.6 15 41.9 21.4 63.2 3.3 11.5 6.6 23 9.6 34.6l-3 .4a436.2 436.2 0 0 0-37.2-96.9ZM116 34.4l13.6-.7.8 10-12.4.7-2-10Zm18-1 15-.8-.3 10-14.2.8-.6-10ZM112 15l16.2-.7.6 10-14.7 1-2-10.3Zm21.4-.9 15.8-.7-.1 9.8-15.6.9-.1-10Z" fill="#fff"/></svg>