<svg xmlns="http://www.w3.org/2000/svg" width="129" height="30" fill="none" viewBox="0 0 129 30"><rect width="128.336" height="29.09" fill="#fff" rx="5"/><rect width="128.336" height="29.09" fill="#F0F1F5" rx="5"/><rect width="128.336" height="29.09" fill="url(#paint0_linear_89_725)" fill-opacity=".2" rx="5"/><path fill="#141414" d="M97.9662 20.0041V9.52092H100.659V13.4939H100.853L103.315 9.52092H106.396L103.525 14.146L106.826 19.5822V20.0041H103.891L101.672 15.9873H100.622V19.9877L97.9662 20.0041ZM13.7157 13.6912L14.9006 16.4312H13.7103L12.7839 18.6944H15.7463L16.3495 20.0041H18.9026V19.615L14.2866 9.46612H13.1609L8.55573 19.615V20.0041H11.1142L13.7157 13.6912ZM30.8222 9.52092H31.7594V20.0041H29.0663V15.3461L26.8687 17.6751H26.5725L24.418 15.3461V20.0041H21.7249V9.52092H22.6944L26.7179 14.0583L30.8222 9.52092ZM42.09 11.9431H38.2874V13.4227H41.7776V15.7955H38.2874V17.6313H42.2193V20.0041H35.6751V9.54832H42.09V11.9431ZM49.733 20.0041H45.8604V9.54832H49.733C56.428 9.5812 56.428 19.9712 49.733 20.0041ZM48.4834 17.571H49.733C53.0078 17.571 53.0078 11.9869 49.733 11.9869H48.4834V17.571ZM63.0369 17.6313V19.9767H57.8284V17.6313H59.1319V11.8828H57.9308V9.54832H62.9561V11.8828H61.728V17.6313H63.0369ZM72.9636 18.6889H68.9132L68.3153 20.0041H65.7461V19.615L70.3675 9.41132H71.4986L76.1307 19.6096V19.9986H73.5615L72.9636 18.6889ZM70.9222 13.6583L69.7642 16.3983H72.1126L70.9222 13.6583ZM77.1594 11.9431V9.54832H84.7916V11.9431H82.2817V20.0041H79.6855V11.9431H77.1594ZM94.5083 11.9431H90.711V13.4227H94.1959V15.7955H90.7057V17.6313H94.6376V20.0041H88.0934V9.54832H94.5029L94.5083 11.9431ZM117.206 20.0041H119.78V19.615L115.153 9.41132H114.022L109.385 19.615V20.0041H111.97L112.579 18.6889H115.552L114.62 16.4093H113.425L114.615 13.6693L117.206 20.0041Z"/><defs><linearGradient id="paint0_linear_89_725" x1="128" x2="103.171" y1="0" y2="-38.149" gradientUnits="userSpaceOnUse"><stop stop-color="#F0F1F5"/><stop offset="1" stop-color="#BABECC"/></linearGradient></defs></svg>