<svg xmlns="http://www.w3.org/2000/svg" width="177" height="34" fill="none" viewBox="0 0 177 34"><path fill="#C42F75" d="M0 32.5444C0 33.3479 0.655219 34 1.46254 34H162.862C167.419 34 171.173 32.4843 173.587 30.0874C175.988 27.7041 177 24.5367 177 21.3849C177 18.2331 175.988 15.0657 173.587 12.6824C171.173 10.2836 167.419 8.76983 162.862 8.76983H129.341L135.62 2.52051C135.764 2.38725 135.879 2.22655 135.959 2.048C136.039 1.86945 136.082 1.67671 136.086 1.48126C136.089 1.28582 136.053 1.09169 135.98 0.910441C135.906 0.729195 135.797 0.564551 135.658 0.426331C135.519 0.288111 135.353 0.179147 135.171 0.105938C134.989 0.03273 134.794 -0.00322182 134.598 0.000226533C134.401 0.00367489 134.208 0.0464527 134.028 0.126009C133.849 0.205566 133.687 0.32027 133.553 0.46328L124.778 9.1968C124.504 9.46973 124.35 9.83969 124.35 10.2254C124.35 10.6111 124.504 10.9811 124.778 11.254L133.553 19.9876C133.687 20.1306 133.849 20.2453 134.028 20.3248C134.208 20.4044 134.401 20.4472 134.598 20.4506C134.794 20.4541 134.989 20.4181 135.171 20.3449C135.353 20.2717 135.519 20.1627 135.658 20.0245C135.797 19.8863 135.906 19.7216 135.98 19.5404C136.053 19.3591 136.089 19.165 136.086 18.9696C136.082 18.7741 136.039 18.5814 135.959 18.4028C135.879 18.2243 135.764 18.0636 135.62 17.9303L129.341 11.681H162.862C166.739 11.681 169.543 12.9542 171.345 14.7436C173.16 16.5446 174.075 18.9551 174.075 21.3849C174.082 22.6163 173.844 23.837 173.376 24.9768C172.907 26.1165 172.217 27.1529 171.345 28.0263C169.543 29.8157 166.739 31.0888 162.862 31.0888H1.46254C1.07465 31.0888 0.702649 31.2422 0.42837 31.5152C0.15409 31.7881 0 32.1584 0 32.5444Z"/></svg>