<svg xmlns="http://www.w3.org/2000/svg" width="170" height="24" fill="none" viewBox="0 0 170 24"><path fill="#C42F75" fill-rule="evenodd" d="M0 12C0 11.6464 0.142291 11.3073 0.395571 11.0573C0.64885 10.8073 0.992371 10.6669 1.35056 10.6669H165.205L156.704 2.2787C156.451 2.02837 156.308 1.68885 156.308 1.33483C156.308 0.980811 156.451 0.641292 156.704 0.390962C156.958 0.140633 157.302 8.34097e-09 157.661 0C158.019 -8.34097e-09 158.363 0.140633 158.617 0.390962L169.421 11.0561C169.547 11.18 169.647 11.3271 169.715 11.489C169.783 11.651 169.818 11.8246 169.818 12C169.818 12.1754 169.783 12.349 169.715 12.511C169.647 12.6729 169.547 12.82 169.421 12.9439L158.617 23.609C158.363 23.8594 158.019 24 157.661 24C157.302 24 156.958 23.8594 156.704 23.609C156.451 23.3587 156.308 23.0192 156.308 22.6652C156.308 22.3112 156.451 21.9716 156.704 21.7213L165.205 13.3331H1.35056C0.992371 13.3331 0.64885 13.1927 0.395571 12.9427C0.142291 12.6927 0 12.3536 0 12Z" clip-rule="evenodd"/></svg>