<svg xmlns="http://www.w3.org/2000/svg" width="984" height="980" fill="none" viewBox="0 0 984 980"><rect width="984" height="979" fill="#ECECEC"/><rect width="984" height="979" fill="url(#paint0_linear_201_9)"/><path fill="url(#paint1_linear_201_9)" fill-opacity=".5" fill-rule="evenodd" d="M568.368 64.9057C702.089 56.208 809.216 181.013 868.662 301.031C915.658 395.914 865.755 499.948 833.852 600.903C806.769 686.604 780.651 774.824 704.054 821.918C617.069 875.398 513.838 884.53 415.127 858.345C279.309 822.317 97.5121 791.714 70.6085 653.883C43.8018 516.549 223.05 444.047 313.393 337.148C397.825 237.242 437.788 73.3991 568.368 64.9057Z" clip-rule="evenodd"/><path fill="url(#paint2_linear_201_9)" fill-opacity=".4" fill-rule="evenodd" d="M726.001 199.991C837.33 246.316 873.921 389.774 873.964 510.347C873.998 605.668 792.222 669.72 726.194 738.468C670.143 796.827 613.863 857.605 533.285 865.056C441.777 873.516 354.869 839.705 285.702 779.195C190.534 695.938 56.1159 598.718 89.4305 476.751C122.625 355.224 296.142 368.218 411.679 317.986C519.658 271.04 617.288 154.755 726.001 199.991Z" clip-rule="evenodd"/><defs><linearGradient id="paint0_linear_201_9" x1="984" x2="-56.906" y1="0" y2="914.208" gradientUnits="userSpaceOnUse"><stop stop-color="#1B0164"/><stop offset="1" stop-color="#0E0138"/></linearGradient><linearGradient id="paint1_linear_201_9" x1="691.23" x2="104.951" y1="74.459" y2="841.292" gradientUnits="userSpaceOnUse"><stop stop-color="#300B99"/><stop offset="1" stop-color="#301E67"/></linearGradient><linearGradient id="paint2_linear_201_9" x1="653.208" x2="330.698" y1="163.557" y2="815.642" gradientUnits="userSpaceOnUse"><stop stop-color="#C32F77"/><stop offset="1" stop-color="#393289"/></linearGradient></defs></svg>