<svg width="140" height="17" viewBox="0 0 140 17" fill="none" xmlns="http://www.w3.org/2000/svg">
<g opacity="0.2">
<path d="M117.707 13.9537H121.563V4.24312H125.28V0.792969H113.99V4.24312H117.707V13.9537Z" fill="black"/>
<path d="M139.647 4.24312V0.792969H133.856C128.733 0.792969 125.67 3.25537 125.67 7.37331C125.67 11.4912 128.733 13.9537 133.856 13.9537H139.647V10.5035H133.856C131.114 10.5035 129.666 9.41836 129.666 7.37331C129.666 5.32825 131.114 4.24312 133.856 4.24312H139.647Z" fill="black"/>
<path d="M103.605 8.68103L101.489 0.792969H94.5557V13.9537H98.4119V2.67108L98.5511 3.18582L101.433 13.9537H105.902L108.923 2.67108V13.9537H112.779V0.792969H105.846L103.674 8.93145L103.605 8.68103Z" fill="black"/>
<path d="M85.1862 0C84.1003 0 82.8056 1.05731 81.7336 2.82413C80.606 4.67441 79.9377 6.95597 79.9377 8.94538C79.9377 11.8391 81.5666 14.7467 85.1862 14.7467C88.8058 14.7467 90.4346 11.8251 90.4346 8.94538C90.4346 6.95597 89.7664 4.67441 88.6387 2.82413C87.5668 1.05731 86.2721 0 85.1862 0Z" fill="black"/>
<path d="M0 9.15375C0 12.1031 2.17176 14.329 5.05353 14.329C6.01412 14.329 6.89118 14.1064 7.71255 13.6612V11.8944C7.04432 12.3257 6.27863 12.7013 5.23452 12.7013C3.56393 12.7013 1.79588 11.4492 1.79588 9.13984C1.79588 7.1087 3.27157 5.59229 5.23452 5.59229C6.13942 5.59229 6.86334 5.81489 7.71255 6.35745V4.61846C6.89118 4.17328 6.01412 3.9646 5.05353 3.9646C2.17176 3.97851 0 6.20442 0 9.15375Z" fill="black"/>
<path d="M11.1374 7.92958L11.1235 7.97132H10.9982L10.8033 6.84445H9.43896V14.1343H11.1652V10.3781C11.1652 8.88951 12.1537 8.36085 13.0725 8.36085C13.2674 8.36085 13.4345 8.37477 13.6015 8.40259V6.80272C13.4762 6.7749 13.3231 6.76099 13.1282 6.76099C12.8219 6.76099 11.736 6.84445 11.1374 7.92958Z" fill="black"/>
<path d="M17.9307 6.66382C15.8285 6.66382 14.311 8.27759 14.311 10.5035C14.311 12.8129 15.8563 14.3015 18.2509 14.3015C19.1558 14.3015 20.0189 14.065 20.7568 13.6059V12.1868C20.0189 12.6738 19.2254 12.9381 18.4597 12.9381C17.165 12.9381 16.2044 12.2147 15.9399 11.0322L15.9259 10.9487H21.1605C21.1883 10.7678 21.2022 10.5731 21.2022 10.3366C21.2162 8.11066 19.9354 6.66382 17.9307 6.66382ZM15.9259 9.9192L15.9399 9.83574C16.1487 8.75061 16.9422 8.02718 17.9167 8.02718C18.9052 8.02718 19.5595 8.73669 19.5734 9.84964V9.9192H15.9259Z" fill="black"/>
<path d="M28.2611 8.17997L28.1637 8.01302C27.6486 7.15048 26.7437 6.64966 25.7135 6.64966C24.1125 6.64966 22.4558 8.08259 22.4558 10.4754C22.4558 12.3118 23.6948 14.2873 25.7135 14.2873C26.7437 14.2873 27.6346 13.7865 28.1637 12.91L28.2611 12.7431L28.4699 14.0925H29.9039V6.80269H28.4699L28.2611 8.17997ZM26.2286 12.757C25.0591 12.757 24.196 11.7971 24.196 10.4894C24.196 9.18163 25.0452 8.2217 26.2286 8.2217C27.384 8.2217 28.2193 9.18163 28.2193 10.4894C28.2193 11.7971 27.3701 12.757 26.2286 12.757Z" fill="black"/>
<path d="M34.08 11.3241V8.26348H36.1125V6.84446H34.08V5.11938H32.4233V6.84446H31.3235V8.26348H32.4094V11.4215C32.4094 13.244 33.4396 14.2873 35.2494 14.2873C35.6253 14.2873 35.9455 14.2595 36.2518 14.19V12.7431C36.029 12.7849 35.8341 12.7988 35.6531 12.7988C34.6368 12.7709 34.08 12.2562 34.08 11.3241Z" fill="black"/>
<path d="M40.8879 6.66382C38.7858 6.66382 37.2683 8.27759 37.2683 10.5035C37.2683 12.8129 38.8136 14.3015 41.2081 14.3015C42.113 14.3015 42.9762 14.065 43.714 13.6059V12.1868C42.9762 12.6738 42.1826 12.9381 41.417 12.9381C40.1222 12.9381 39.1616 12.2147 38.9111 11.0322L38.8971 10.9487H44.1317C44.1595 10.7678 44.1734 10.5731 44.1734 10.3366C44.1734 8.11066 42.8787 6.66382 40.8879 6.66382ZM38.8832 9.9192L38.8971 9.83574C39.106 8.75061 39.8856 8.02718 40.874 8.02718C41.8624 8.02718 42.5168 8.73669 42.5307 9.84964V9.9192H38.8832Z" fill="black"/>
<path d="M51.1341 8.18L51.0088 7.95741C50.5494 7.16443 49.6584 6.6636 48.6839 6.6636C47.0969 6.6636 45.4124 7.99914 45.4124 10.4755C45.4124 12.3536 46.6375 14.3013 48.6978 14.3013C49.7002 14.3013 50.6051 13.7865 51.1202 12.924L51.2177 12.757L51.4265 14.1065H52.8604V3.42212H51.1341V8.18ZM49.1712 12.757C48.0018 12.757 47.1386 11.7971 47.1386 10.4894C47.1386 9.18166 47.9878 8.22173 49.1712 8.22173C50.3267 8.22173 51.162 9.18166 51.162 10.4894C51.162 11.7971 50.3267 12.757 49.1712 12.757Z" fill="black"/>
<path d="M62.6614 6.66361C61.6729 6.66361 60.7402 7.17835 60.2808 7.97133L60.1555 8.19393V3.44995H58.4292V14.1343H59.8631L60.0719 12.7849L60.1694 12.9518C60.6845 13.8143 61.5894 14.3291 62.5918 14.3291C64.6382 14.3291 65.8772 12.3814 65.8772 10.5033C65.8772 7.99915 64.2206 6.66361 62.6614 6.66361ZM62.1184 12.757C60.9629 12.757 60.1137 11.7971 60.1137 10.4894C60.1137 9.18167 60.949 8.22174 62.1045 8.22174C63.2739 8.22174 64.137 9.18167 64.137 10.5033C64.137 11.7971 63.2878 12.757 62.1184 12.757Z" fill="black"/>
<path d="M72.0166 6.84424L70.2764 11.9638H70.1372L70.1233 11.9221L68.4109 6.84424H66.5454L69.3158 13.9671L69.3019 13.995L68.0768 16.9582H69.8031L73.7846 6.84424H72.0166Z" fill="black"/>
</g>
</svg>
