<svg xmlns="http://www.w3.org/2000/svg" width="139" height="50" fill="none" viewBox="0 0 139 50"><mask id="mask0_14_44" width="139" height="34" x="0" y="0" maskUnits="userSpaceOnUse" style="mask-type:alpha"><path fill="#fff" d="M45.2902 1.23669V31.8679C45.2902 32.5498 44.7379 33.1046 44.0591 33.1046H36.1091C35.4302 33.1046 34.878 32.5498 34.878 31.8679V1.23669C34.878 0.554778 35.4302 0 36.1091 0H44.0591C44.7379 0 45.2902 0.554778 45.2902 1.23669ZM32.8617 31.7032L23.6 15.7996L32.3785 1.44762C32.7984 0.835056 32.3641 0 31.6249 0L21.9807 0C21.6758 0 21.3882 0.153142 21.2185 0.407415L14.3901 12.0664H10.4122V1.23669C10.4122 0.554778 9.85995 0 9.18115 0H1.23106C0.552249 0 0 0.554778 0 1.23669V31.8679C0 32.5498 0.552249 33.1046 1.23106 33.1046H9.18115C9.85995 33.1046 10.4122 32.5498 10.4122 31.8679V21.0844H15.2588L22.0382 32.6539C22.205 32.9312 22.5042 33.1046 22.8263 33.1046H32.0794C32.7956 33.1046 33.2356 32.3158 32.8617 31.7032ZM137.073 33.1046C137.752 33.1046 138.304 32.5498 138.304 31.8679V1.23669C138.304 0.554778 137.752 0 137.073 0H129.459C128.781 0 128.228 0.554778 128.228 1.23669V16.9063L114.304 0H105.483C104.804 0 104.251 0.554778 104.251 1.23669V31.8708C104.251 32.5527 104.801 33.1046 105.48 33.1046H113.125C113.804 33.1046 114.353 32.5527 114.353 31.8708V16.1955L128.122 33.1046H137.073ZM101.062 1.36672V31.7408C101.062 32.4949 100.452 33.1075 99.7011 33.1075H49.8348C49.084 33.1075 48.4743 32.4949 48.4743 31.7408V1.36672C48.4743 0.612567 49.084 0 49.8348 0H99.704C100.455 0 101.062 0.612567 101.062 1.36672ZM90.7127 8.80131C90.7127 8.52681 90.4625 8.32166 90.1921 8.37656C84.8048 9.45722 65.7292 9.62192 59.3323 8.36789C59.0677 8.31588 58.8232 8.52104 58.8232 8.79554V23.8236C58.8232 24.0895 59.0562 24.2917 59.3208 24.2542C64.6247 23.4654 84.7875 23.5954 90.2295 24.2715C90.4884 24.3033 90.7127 24.101 90.7127 23.841V8.80131Z"/></mask><g mask="url(#mask0_14_44)"><path fill="url(#paint0_linear_14_44)" d="M138.949 0H0V33.1075H138.949V0Z"/></g><path fill="#000" d="M124.14 48.0585H126.632V41.7836H129.034V39.5541H121.739V41.7836H124.14V48.0585Z"/><path fill="#000" d="M138.318 41.7836V39.5541H134.576C131.265 39.5541 129.286 41.1453 129.286 43.8063C129.286 46.4673 131.265 48.0585 134.576 48.0585H138.318V45.829H134.576C132.804 45.829 131.868 45.1278 131.868 43.8063C131.868 42.4848 132.804 41.7836 134.576 41.7836H138.318Z"/><path fill="#000" d="M115.028 44.6513L113.66 39.5541H109.18V48.0585H111.672V40.7678L111.762 41.1004L113.624 48.0585H116.512L118.464 40.7678V48.0585H120.956V39.5541H116.476L115.073 44.8132L115.028 44.6513Z"/><path fill="#000" d="M103.126 39.0416C102.424 39.0416 101.587 39.7249 100.895 40.8666C100.166 42.0622 99.7341 43.5365 99.7341 44.8221C99.7341 46.6919 100.787 48.5708 103.126 48.5708C105.465 48.5708 106.517 46.6829 106.517 44.8221C106.517 43.5365 106.085 42.0622 105.357 40.8666C104.664 39.7249 103.827 39.0416 103.126 39.0416Z"/><path fill="#000" d="M48.079 44.9568C48.079 46.8626 49.4824 48.301 51.3445 48.301C51.9653 48.301 52.532 48.1571 53.0628 47.8695V46.7278C52.631 47.0064 52.1362 47.2492 51.4615 47.2492C50.382 47.2492 49.2395 46.4401 49.2395 44.9478C49.2395 43.6353 50.193 42.6554 51.4615 42.6554C52.0462 42.6554 52.514 42.7992 53.0628 43.1498V42.0261C52.532 41.7384 51.9653 41.6036 51.3445 41.6036C49.4824 41.6126 48.079 43.0509 48.079 44.9568Z"/><path fill="#000" d="M55.2759 44.1658L55.2669 44.1928H55.1859L55.06 43.4646H54.1783V48.1752H55.2939V45.748C55.2939 44.7861 55.9326 44.4445 56.5263 44.4445C56.6523 44.4445 56.7602 44.4535 56.8682 44.4714V43.4376C56.7872 43.4196 56.6882 43.4106 56.5623 43.4106C56.3644 43.4106 55.6627 43.4646 55.2759 44.1658Z"/><path fill="#000" d="M59.6658 43.3477C58.3073 43.3477 57.3268 44.3905 57.3268 45.8289C57.3268 47.3212 58.3253 48.2831 59.8727 48.2831C60.4574 48.2831 61.0152 48.1303 61.492 47.8336V46.9167C61.0152 47.2313 60.5024 47.4021 60.0076 47.4021C59.171 47.4021 58.5502 46.9346 58.3793 46.1705L58.3703 46.1166H61.7528C61.7708 45.9997 61.7798 45.8738 61.7798 45.721C61.7888 44.2827 60.9612 43.3477 59.6658 43.3477ZM58.3703 45.4513L58.3793 45.3974C58.5143 44.6962 59.027 44.2287 59.6568 44.2287C60.2955 44.2287 60.7183 44.6872 60.7273 45.4064V45.4513H58.3703Z"/><path fill="#000" d="M66.3411 44.3274L66.2781 44.2196C65.9452 43.6622 65.3605 43.3386 64.6948 43.3386C63.6603 43.3386 62.5897 44.2645 62.5897 45.8108C62.5897 46.9974 63.3904 48.274 64.6948 48.274C65.3605 48.274 65.9362 47.9503 66.2781 47.384L66.3411 47.2761L66.476 48.1481H67.4026V43.4375H66.476L66.3411 44.3274ZM65.0276 47.2851C64.272 47.2851 63.7142 46.6648 63.7142 45.8197C63.7142 44.9747 64.263 44.3544 65.0276 44.3544C65.7743 44.3544 66.3141 44.9747 66.3141 45.8197C66.3141 46.6648 65.7653 47.2851 65.0276 47.2851Z"/><path fill="#000" d="M70.1013 46.3592V44.3815H71.4147V43.4645H70.1013V42.3498H69.0308V43.4645H68.3201V44.3815H69.0218V46.4222C69.0218 47.5998 69.6875 48.2741 70.857 48.2741C71.0999 48.2741 71.3068 48.2561 71.5047 48.2111V47.2762C71.3607 47.3032 71.2348 47.3122 71.1178 47.3122C70.4611 47.2942 70.1013 46.9616 70.1013 46.3592Z"/><path fill="#000" d="M74.5005 43.3477C73.1421 43.3477 72.1615 44.3905 72.1615 45.8289C72.1615 47.3212 73.1601 48.2831 74.7074 48.2831C75.2921 48.2831 75.8499 48.1303 76.3267 47.8336V46.9167C75.8499 47.2313 75.3371 47.4021 74.8423 47.4021C74.0057 47.4021 73.385 46.9346 73.223 46.1705L73.214 46.1166H76.5965C76.6145 45.9997 76.6235 45.8738 76.6235 45.721C76.6235 44.2827 75.7869 43.3477 74.5005 43.3477ZM73.205 45.4513L73.214 45.3974C73.349 44.6962 73.8528 44.2287 74.4915 44.2287C75.1302 44.2287 75.553 44.6872 75.562 45.4064V45.4513H73.205Z"/><path fill="#000" d="M81.1214 44.3275L81.0405 44.1837C80.7436 43.6712 80.1679 43.3476 79.5381 43.3476C78.5126 43.3476 77.4241 44.2106 77.4241 45.8108C77.4241 47.0244 78.2157 48.283 79.5471 48.283C80.1948 48.283 80.7796 47.9504 81.1124 47.393L81.1754 47.2851L81.3104 48.1571H82.2369V41.253H81.1214V44.3275ZM79.853 47.2851C79.0973 47.2851 78.5396 46.6648 78.5396 45.8198C78.5396 44.9748 79.0883 44.3545 79.853 44.3545C80.5997 44.3545 81.1394 44.9748 81.1394 45.8198C81.1394 46.6648 80.5997 47.2851 79.853 47.2851Z"/><path fill="#000" d="M88.5702 43.3476C87.9315 43.3476 87.3288 43.6802 87.0319 44.1926L86.951 44.3365V41.2709H85.8354V48.1751H86.762L86.897 47.3031L86.96 47.411C87.2928 47.9683 87.8775 48.3009 88.5253 48.3009C89.8477 48.3009 90.6483 47.0424 90.6483 45.8288C90.6483 44.2106 89.5778 43.3476 88.5702 43.3476ZM88.2194 47.2851C87.4727 47.2851 86.924 46.6648 86.924 45.8198C86.924 44.9747 87.4637 44.3544 88.2104 44.3544C88.9661 44.3544 89.5238 44.9747 89.5238 45.8288C89.5238 46.6648 88.9751 47.2851 88.2194 47.2851Z"/><path fill="#000" d="M94.6155 43.4644L93.491 46.7727H93.401L93.3921 46.7457L92.2855 43.4644H91.0801L92.8703 48.0672L92.8613 48.0852L92.0696 50H93.1851L95.758 43.4644H94.6155Z"/><defs><linearGradient id="paint0_linear_14_44" x1="60.868" x2="82.048" y1="48.74" y2="-30.47" gradientUnits="userSpaceOnUse"><stop offset=".036" stop-color="#3F71B6"/><stop offset=".101" stop-color="#3D59A5"/><stop offset=".194" stop-color="#3A3D91"/><stop offset=".247" stop-color="#393289"/><stop offset=".472" stop-color="#C12E7D"/><stop offset=".51" stop-color="#C62E68"/><stop offset=".565" stop-color="#CC2D50"/><stop offset=".627" stop-color="#D02D3E"/><stop offset=".702" stop-color="#D42C31"/><stop offset=".798" stop-color="#D52C29"/><stop offset=".997" stop-color="#D62C27"/></linearGradient></defs></svg>