<svg xmlns="http://www.w3.org/2000/svg" width="153" height="42" fill="none" viewBox="0 0 153 42"><g opacity=".1"><rect width="122.347" height="41.923" x="30" fill="#F0F1F5" rx="5"/><rect width="122.347" height="41.923" x="30" fill="url(#paint0_linear_100_7)" fill-opacity=".2" rx="5"/></g><g opacity=".2"><rect width="122.347" height="41.923" x="20" fill="#F0F1F5" rx="5"/><rect width="122.347" height="41.923" x="20" fill="url(#paint1_linear_100_7)" fill-opacity=".2" rx="5"/></g><g opacity=".3"><rect width="122.347" height="41.923" x="10" fill="#F0F1F5" rx="5"/><rect width="122.347" height="41.923" x="10" fill="url(#paint2_linear_100_7)" fill-opacity=".2" rx="5"/></g><rect width="122.347" height="41.923" fill="#fff" rx="5"/><rect width="122.347" height="41.923" fill="#F0F1F5" rx="5"/><rect width="122.347" height="41.923" fill="url(#paint3_linear_100_7)" fill-opacity=".2" rx="5"/><mask id="mask0_100_7" width="106" height="26" x="8" y="8" maskUnits="userSpaceOnUse" style="mask-type:alpha"><path fill="#fff" d="M43.0171 9.49672V32.804C43.0171 33.3229 42.5969 33.745 42.0804 33.745H36.0312C35.5147 33.745 35.0945 33.3229 35.0945 32.804V9.49672C35.0945 8.97786 35.5147 8.55573 36.0312 8.55573H42.0804C42.5969 8.55573 43.0171 8.97786 43.0171 9.49672ZM33.5603 32.6787L26.5131 20.5776L33.1926 9.65722C33.5121 9.19112 33.1816 8.55573 32.6192 8.55573H25.2809C25.0489 8.55573 24.83 8.67225 24.7009 8.86573L19.5052 17.7371H16.4784V9.49672C16.4784 8.97786 16.0582 8.55573 15.5417 8.55573H9.4925C8.97599 8.55573 8.55579 8.97786 8.55579 9.49672V32.804C8.55579 33.3229 8.97599 33.745 9.4925 33.745H15.5417C16.0582 33.745 16.4784 33.3229 16.4784 32.804V24.5989H20.1662L25.3247 33.4021C25.4516 33.6131 25.6792 33.745 25.9243 33.745H32.965C33.5099 33.745 33.8448 33.1448 33.5603 32.6787ZM112.855 33.745C113.371 33.745 113.791 33.3229 113.791 32.804V9.49672C113.791 8.97786 113.371 8.55573 112.855 8.55573H107.061C106.545 8.55573 106.125 8.97786 106.125 9.49672V21.4197L95.5298 8.55573H88.8174C88.3009 8.55573 87.8807 8.97786 87.8807 9.49672V32.8062C87.8807 33.3251 88.2987 33.745 88.8152 33.745H94.6325C95.149 33.745 95.567 33.3251 95.567 32.8062V20.8789L106.044 33.745H112.855ZM85.4536 9.59566V32.7073C85.4536 33.2811 84.9896 33.7472 84.4184 33.7472H46.4751C45.9038 33.7472 45.4399 33.2811 45.4399 32.7073V9.59566C45.4399 9.02183 45.9038 8.55573 46.4751 8.55573H84.4206C84.9918 8.55573 85.4536 9.02183 85.4536 9.59566ZM77.5791 15.2526C77.5791 15.0438 77.3887 14.8877 77.183 14.9295C73.0838 15.7517 58.5691 15.877 53.7017 14.9229C53.5004 14.8833 53.3143 15.0394 53.3143 15.2482V26.6831C53.3143 26.8854 53.4916 27.0393 53.693 27.0107C57.7287 26.4105 73.0706 26.5095 77.2114 27.0239C77.4084 27.0481 77.5791 26.8942 77.5791 26.6963V15.2526V15.2526Z"/></mask><g mask="url(#mask0_100_7)"><path fill="url(#paint4_linear_100_7)" d="M114.282 8.55573H8.55579V33.7472H114.282V8.55573Z"/></g><defs><linearGradient id="paint0_linear_100_7" x1="152" x2="102.867" y1="0" y2="-42.413" gradientUnits="userSpaceOnUse"><stop stop-color="#F0F1F5"/><stop offset="1" stop-color="#BABECC"/></linearGradient><linearGradient id="paint1_linear_100_7" x1="142" x2="92.867" y1="0" y2="-42.413" gradientUnits="userSpaceOnUse"><stop stop-color="#F0F1F5"/><stop offset="1" stop-color="#BABECC"/></linearGradient><linearGradient id="paint2_linear_100_7" x1="132" x2="82.867" y1="0" y2="-42.413" gradientUnits="userSpaceOnUse"><stop stop-color="#F0F1F5"/><stop offset="1" stop-color="#BABECC"/></linearGradient><linearGradient id="paint3_linear_100_7" x1="122" x2="72.867" y1="0" y2="-42.413" gradientUnits="userSpaceOnUse"><stop stop-color="#F0F1F5"/><stop offset="1" stop-color="#BABECC"/></linearGradient><linearGradient id="paint4_linear_100_7" x1="54.87" x2="70.986" y1="45.642" y2="-14.629" gradientUnits="userSpaceOnUse"><stop offset=".036" stop-color="#3F71B6"/><stop offset=".101" stop-color="#3D59A5"/><stop offset=".194" stop-color="#3A3D91"/><stop offset=".247" stop-color="#393289"/><stop offset=".472" stop-color="#C12E7D"/><stop offset=".51" stop-color="#C62E68"/><stop offset=".565" stop-color="#CC2D50"/><stop offset=".627" stop-color="#D02D3E"/><stop offset=".702" stop-color="#D42C31"/><stop offset=".798" stop-color="#D52C29"/><stop offset=".997" stop-color="#D62C27"/></linearGradient></defs></svg>