<svg width="208" height="51" viewBox="0 0 208 51" fill="none" xmlns="http://www.w3.org/2000/svg">
<mask id="path-1-inside-1_513_3" fill="white">
<path d="M68.1308 1.87222V48.1321C68.1313 48.3776 68.0838 48.6207 67.991 48.8476C67.8982 49.0745 67.7618 49.2806 67.5898 49.4542C67.4177 49.6278 67.2134 49.7653 66.9885 49.859C66.7636 49.9526 66.5226 50.0006 66.2793 50H54.2883C53.7973 50 53.3264 49.8032 52.9792 49.4529C52.632 49.1026 52.4369 48.6275 52.4369 48.1321V1.87222C52.4369 1.37684 52.632 0.901735 52.9792 0.551445C53.3264 0.201154 53.7973 0.0043684 54.2883 0.0043684H66.2447C66.4909 -0.000868538 66.7357 0.0436053 66.9646 0.135181C67.1935 0.226756 67.4019 0.363578 67.5776 0.537607C67.7533 0.711636 67.8928 0.919362 67.9878 1.14856C68.0828 1.37775 68.1314 1.6238 68.1308 1.87222ZM49.4392 47.8834L35.5102 23.8806L48.7124 2.2039C48.855 1.99512 48.9384 1.75102 48.9535 1.49794C48.9687 1.24486 48.9151 0.992405 48.7984 0.767827C48.6818 0.543249 48.5066 0.35507 48.2917 0.223601C48.0768 0.092132 47.8304 0.0223676 47.5791 0.0218287H33.0748C32.8479 0.0217241 32.6245 0.0782507 32.4245 0.186376C32.2244 0.294502 32.054 0.450861 31.9285 0.64153L21.6591 18.2465H15.6593V1.87222C15.6593 1.37684 15.4642 0.901735 15.117 0.551445C14.7698 0.201154 14.2989 0.0043684 13.8078 0.0043684H1.85143C1.3604 0.0043684 0.889475 0.201154 0.542265 0.551445C0.195055 0.901735 0 1.37684 0 1.87222V48.1321C0 48.6275 0.195055 49.1026 0.542265 49.4529C0.889475 49.8032 1.3604 50 1.85143 50H13.8078C14.2989 50 14.7698 49.8032 15.117 49.4529C15.4642 49.1026 15.6593 48.6275 15.6593 48.1321V31.8495H22.9482L33.144 49.3061C33.2671 49.5126 33.4408 49.6836 33.6484 49.8029C33.856 49.9221 34.0904 49.9855 34.3293 49.9869H48.2323C48.4763 49.9875 48.7161 49.9228 48.9272 49.7995C49.1384 49.6761 49.3133 49.4985 49.4342 49.2846C49.5552 49.0708 49.6177 48.8285 49.6155 48.5823C49.6134 48.3362 49.5465 48.095 49.4218 47.8834H49.4392ZM206.166 50C206.654 49.9954 207.12 49.7966 207.464 49.4468C207.807 49.097 208 48.6245 208 48.1321V1.87222C208 1.37684 207.805 0.901735 207.458 0.551445C207.111 0.201154 206.64 0.0043684 206.149 0.0043684H194.698C194.455 0.0037929 194.214 0.0517181 193.989 0.145383C193.764 0.239047 193.56 0.376605 193.388 0.550166C193.216 0.723727 193.079 0.92987 192.987 1.15675C192.894 1.38363 192.846 1.62677 192.847 1.87222V25.5346L171.906 0H158.639C158.395 0 158.154 0.0484315 157.929 0.142519C157.703 0.236607 157.499 0.374517 157.326 0.548368C157.154 0.722219 157.017 0.928602 156.924 1.15575C156.831 1.3829 156.783 1.62636 156.783 1.87222V48.1321C156.783 48.6264 156.978 49.1004 157.324 49.4498C157.67 49.7993 158.14 49.9956 158.63 49.9956H170.128C170.37 49.9956 170.611 49.9474 170.835 49.8538C171.059 49.7601 171.263 49.6229 171.434 49.4498C171.606 49.2768 171.742 49.0714 171.834 48.8453C171.927 48.6192 171.975 48.3769 171.975 48.1321V24.4654L192.682 50H206.166ZM151.994 2.06424V47.9401C151.994 48.4876 151.779 49.0126 151.395 49.3997C151.011 49.7869 150.491 50.0044 149.948 50.0044H74.9525C74.4098 50.0044 73.8894 49.7869 73.5057 49.3997C73.122 49.0126 72.9064 48.4876 72.9064 47.9401V2.06424C72.9064 1.51677 73.122 0.991731 73.5057 0.604611C73.8894 0.217491 74.4098 0 74.9525 0H149.948C150.491 0 151.011 0.217491 151.395 0.604611C151.779 0.991731 151.994 1.51677 151.994 2.06424ZM136.422 13.2975C136.422 13.2 136.4 13.1037 136.359 13.0156C136.317 12.9275 136.257 12.8498 136.182 12.7884C136.107 12.7269 136.019 12.6831 135.925 12.6602C135.831 12.6373 135.733 12.6359 135.639 12.656C127.536 14.2882 98.8696 14.5326 89.2275 12.656C89.134 12.6371 89.0374 12.6396 88.9449 12.6632C88.8525 12.6868 88.7664 12.731 88.693 12.7925C88.6196 12.854 88.5608 12.9313 88.5208 13.0186C88.4808 13.106 88.4607 13.2013 88.4619 13.2975V35.9911C88.4614 36.0858 88.4813 36.1795 88.5202 36.2658C88.5591 36.352 88.6161 36.4287 88.6873 36.4905C88.7584 36.5523 88.842 36.5978 88.9323 36.6239C89.0226 36.6499 89.1174 36.6559 89.2102 36.6414C97.1826 35.4499 127.506 35.6463 135.691 36.6675C135.782 36.6793 135.875 36.6713 135.963 36.644C136.051 36.6167 136.133 36.5707 136.202 36.5092C136.271 36.4477 136.326 36.372 136.364 36.2872C136.402 36.2023 136.422 36.1103 136.422 36.0173V13.2975Z"/>
</mask>
<path d="M68.1308 1.87222V48.1321C68.1313 48.3776 68.0838 48.6207 67.991 48.8476C67.8982 49.0745 67.7618 49.2806 67.5898 49.4542C67.4177 49.6278 67.2134 49.7653 66.9885 49.859C66.7636 49.9526 66.5226 50.0006 66.2793 50H54.2883C53.7973 50 53.3264 49.8032 52.9792 49.4529C52.632 49.1026 52.4369 48.6275 52.4369 48.1321V1.87222C52.4369 1.37684 52.632 0.901735 52.9792 0.551445C53.3264 0.201154 53.7973 0.0043684 54.2883 0.0043684H66.2447C66.4909 -0.000868538 66.7357 0.0436053 66.9646 0.135181C67.1935 0.226756 67.4019 0.363578 67.5776 0.537607C67.7533 0.711636 67.8928 0.919362 67.9878 1.14856C68.0828 1.37775 68.1314 1.6238 68.1308 1.87222ZM49.4392 47.8834L35.5102 23.8806L48.7124 2.2039C48.855 1.99512 48.9384 1.75102 48.9535 1.49794C48.9687 1.24486 48.9151 0.992405 48.7984 0.767827C48.6818 0.543249 48.5066 0.35507 48.2917 0.223601C48.0768 0.092132 47.8304 0.0223676 47.5791 0.0218287H33.0748C32.8479 0.0217241 32.6245 0.0782507 32.4245 0.186376C32.2244 0.294502 32.054 0.450861 31.9285 0.64153L21.6591 18.2465H15.6593V1.87222C15.6593 1.37684 15.4642 0.901735 15.117 0.551445C14.7698 0.201154 14.2989 0.0043684 13.8078 0.0043684H1.85143C1.3604 0.0043684 0.889475 0.201154 0.542265 0.551445C0.195055 0.901735 0 1.37684 0 1.87222V48.1321C0 48.6275 0.195055 49.1026 0.542265 49.4529C0.889475 49.8032 1.3604 50 1.85143 50H13.8078C14.2989 50 14.7698 49.8032 15.117 49.4529C15.4642 49.1026 15.6593 48.6275 15.6593 48.1321V31.8495H22.9482L33.144 49.3061C33.2671 49.5126 33.4408 49.6836 33.6484 49.8029C33.856 49.9221 34.0904 49.9855 34.3293 49.9869H48.2323C48.4763 49.9875 48.7161 49.9228 48.9272 49.7995C49.1384 49.6761 49.3133 49.4985 49.4342 49.2846C49.5552 49.0708 49.6177 48.8285 49.6155 48.5823C49.6134 48.3362 49.5465 48.095 49.4218 47.8834H49.4392ZM206.166 50C206.654 49.9954 207.12 49.7966 207.464 49.4468C207.807 49.097 208 48.6245 208 48.1321V1.87222C208 1.37684 207.805 0.901735 207.458 0.551445C207.111 0.201154 206.64 0.0043684 206.149 0.0043684H194.698C194.455 0.0037929 194.214 0.0517181 193.989 0.145383C193.764 0.239047 193.56 0.376605 193.388 0.550166C193.216 0.723727 193.079 0.92987 192.987 1.15675C192.894 1.38363 192.846 1.62677 192.847 1.87222V25.5346L171.906 0H158.639C158.395 0 158.154 0.0484315 157.929 0.142519C157.703 0.236607 157.499 0.374517 157.326 0.548368C157.154 0.722219 157.017 0.928602 156.924 1.15575C156.831 1.3829 156.783 1.62636 156.783 1.87222V48.1321C156.783 48.6264 156.978 49.1004 157.324 49.4498C157.67 49.7993 158.14 49.9956 158.63 49.9956H170.128C170.37 49.9956 170.611 49.9474 170.835 49.8538C171.059 49.7601 171.263 49.6229 171.434 49.4498C171.606 49.2768 171.742 49.0714 171.834 48.8453C171.927 48.6192 171.975 48.3769 171.975 48.1321V24.4654L192.682 50H206.166ZM151.994 2.06424V47.9401C151.994 48.4876 151.779 49.0126 151.395 49.3997C151.011 49.7869 150.491 50.0044 149.948 50.0044H74.9525C74.4098 50.0044 73.8894 49.7869 73.5057 49.3997C73.122 49.0126 72.9064 48.4876 72.9064 47.9401V2.06424C72.9064 1.51677 73.122 0.991731 73.5057 0.604611C73.8894 0.217491 74.4098 0 74.9525 0H149.948C150.491 0 151.011 0.217491 151.395 0.604611C151.779 0.991731 151.994 1.51677 151.994 2.06424ZM136.422 13.2975C136.422 13.2 136.4 13.1037 136.359 13.0156C136.317 12.9275 136.257 12.8498 136.182 12.7884C136.107 12.7269 136.019 12.6831 135.925 12.6602C135.831 12.6373 135.733 12.6359 135.639 12.656C127.536 14.2882 98.8696 14.5326 89.2275 12.656C89.134 12.6371 89.0374 12.6396 88.9449 12.6632C88.8525 12.6868 88.7664 12.731 88.693 12.7925C88.6196 12.854 88.5608 12.9313 88.5208 13.0186C88.4808 13.106 88.4607 13.2013 88.4619 13.2975V35.9911C88.4614 36.0858 88.4813 36.1795 88.5202 36.2658C88.5591 36.352 88.6161 36.4287 88.6873 36.4905C88.7584 36.5523 88.842 36.5978 88.9323 36.6239C89.0226 36.6499 89.1174 36.6559 89.2102 36.6414C97.1826 35.4499 127.506 35.6463 135.691 36.6675C135.782 36.6793 135.875 36.6713 135.963 36.644C136.051 36.6167 136.133 36.5707 136.202 36.5092C136.271 36.4477 136.326 36.372 136.364 36.2872C136.402 36.2023 136.422 36.1103 136.422 36.0173V13.2975Z" fill="white" stroke="white" stroke-width="2" mask="url(#path-1-inside-1_513_3)"/>
</svg>
