<svg xmlns="http://www.w3.org/2000/svg" width="236" height="57" fill="none" viewBox="0 0 236 57"><mask id="mask0_15_50" width="236" height="57" x="0" y="0" maskUnits="userSpaceOnUse" style="mask-type:alpha"><path fill="#fff" d="M76.9933 2.10238V54.1755C76.9933 55.3347 76.0545 56.2778 74.9005 56.2778H61.3854C60.2314 56.2778 59.2926 55.3347 59.2926 54.1755V2.10238C59.2926 0.943122 60.2314 0 61.3854 0H74.9005C76.0545 0 76.9933 0.943122 76.9933 2.10238ZM55.8649 53.8955L40.12 26.8593L55.0434 2.46096C55.7573 1.41959 55.019 0 53.7623 0L37.3671 0C36.8488 0 36.3599 0.260341 36.0714 0.692605L24.4632 20.5129H17.7007V2.10238C17.7007 0.943122 16.7619 0 15.6079 0H2.09279C0.938824 0 0 0.943122 0 2.10238V54.1755C0 55.3347 0.938824 56.2778 2.09279 56.2778H15.6079C16.7619 56.2778 17.7007 55.3347 17.7007 54.1755V35.8435H25.9399L37.4649 55.5116C37.7485 55.9831 38.2571 56.2778 38.8047 56.2778H54.5349C55.7524 56.2778 56.5006 54.9368 55.8649 53.8955ZM233.024 56.2778C234.178 56.2778 235.117 55.3347 235.117 54.1755V2.10238C235.117 0.943122 234.178 0 233.024 0H220.081C218.927 0 217.988 0.943122 217.988 2.10238V28.7407L194.317 0H179.32C178.166 0 177.227 0.943122 177.227 2.10238V54.1804C177.227 55.3396 178.161 56.2778 179.315 56.2778H192.312C193.466 56.2778 194.4 55.3396 194.4 54.1804V27.5323L217.807 56.2778H233.024ZM171.805 2.32342V53.9593C171.805 55.2414 170.768 56.2828 169.492 56.2828H84.7191C83.4428 56.2828 82.4062 55.2414 82.4062 53.9593V2.32342C82.4062 1.04136 83.4428 0 84.7191 0H169.497C170.773 0 171.805 1.04136 171.805 2.32342ZM154.212 14.9622C154.212 14.4956 153.786 14.1468 153.327 14.2402C144.168 16.0773 111.74 16.3573 100.865 14.2254C100.415 14.137 99.9994 14.4858 99.9994 14.9524V40.5002C99.9994 40.9521 100.395 41.296 100.845 41.2321C109.862 39.8911 144.139 40.1121 153.39 41.2616C153.83 41.3156 154.212 40.9718 154.212 40.5297V14.9622Z"/></mask><g mask="url(#mask0_15_50)"><path fill="url(#paint0_linear_15_50)" d="M236.214 0H0V56.2828H236.214V0Z"/></g><defs><linearGradient id="paint0_linear_15_50" x1="103.475" x2="139.482" y1="82.857" y2="-51.799" gradientUnits="userSpaceOnUse"><stop offset=".036" stop-color="#3F71B6"/><stop offset=".101" stop-color="#3D59A5"/><stop offset=".194" stop-color="#3A3D91"/><stop offset=".247" stop-color="#393289"/><stop offset=".472" stop-color="#C12E7D"/><stop offset=".51" stop-color="#C62E68"/><stop offset=".565" stop-color="#CC2D50"/><stop offset=".627" stop-color="#D02D3E"/><stop offset=".702" stop-color="#D42C31"/><stop offset=".798" stop-color="#D52C29"/><stop offset=".997" stop-color="#D62C27"/></linearGradient></defs></svg>