<svg xmlns="http://www.w3.org/2000/svg" width="366" height="126" fill="none" viewBox="0 0 366 126"><g clip-path="url(#clip0_47_99)"><path fill="#fff" d="M120.032 42.1655V122.736C120.032 124.534 118.567 126 116.772 126H95.7988C94.0037 126 92.5393 124.534 92.5393 122.736V42.1655C92.5393 40.3682 94.0037 38.902 95.7988 38.902H116.772C118.567 38.9256 120.032 40.3682 120.032 42.1655ZM87.2251 122.311L62.7794 80.4763L85.9496 42.7331C87.0597 41.1249 85.9024 38.9256 83.9656 38.9256H58.5044C57.7013 38.9256 56.9455 39.3277 56.4967 39.9898L38.4754 70.6621H27.965V42.1655C27.965 40.3682 26.5006 38.902 24.7056 38.902H3.75552C1.96047 38.902 0.496094 40.3682 0.496094 42.1655V122.736C0.496094 124.534 1.96047 126 3.75552 126H24.7292C26.5242 126 27.9886 124.534 27.9886 122.736V94.3817H40.7901L58.6933 124.818C59.1184 125.551 59.9215 126 60.7718 126H85.1938C87.0597 126 88.217 123.919 87.2251 122.311ZM362.268 126C364.063 126 365.528 124.534 365.528 122.736V42.1655C365.528 40.3682 364.063 38.902 362.268 38.902H342.168C340.373 38.902 338.909 40.3682 338.909 42.1655V83.3851L302.158 38.9256H278.87C277.075 38.9256 275.61 40.3918 275.61 42.1891V122.784C275.61 124.581 277.051 126.024 278.846 126.024H299.017C300.812 126.024 302.252 124.581 302.252 122.784V81.5168L338.602 126H362.268ZM267.225 42.5202V122.429C267.225 124.415 265.619 126.024 263.635 126.024H132.03C130.046 126.024 128.44 124.415 128.44 122.429V42.5202C128.44 40.5337 130.046 38.9256 132.03 38.9256H263.635C265.619 38.9256 267.225 40.5337 267.225 42.5202ZM239.922 62.0777C239.922 61.3445 239.261 60.8243 238.552 60.9662C224.333 63.804 173.978 64.2297 157.114 60.9425C156.405 60.8006 155.767 61.3445 155.767 62.054V101.595C155.767 102.304 156.381 102.824 157.066 102.73C171.072 100.649 224.286 101.003 238.646 102.777C239.331 102.872 239.922 102.328 239.922 101.642V62.0777Z"/><path fill="#fff" d="M0 16.0338C0 10.1926 4.32228 5.95947 9.9436 5.95947C15.5885 5.95947 19.8872 10.1926 19.8872 16.0338C19.8872 21.875 15.6122 26.1081 9.9436 26.1081C4.32228 26.1081 0 21.8987 0 16.0338ZM15.6122 16.0338C15.6122 12.0845 12.8487 9.83785 9.9436 9.83785C6.99122 9.83785 4.27504 12.0845 4.27504 16.0338C4.27504 20.0068 7.03846 22.2534 9.9436 22.2534C12.8487 22.2534 15.6122 19.9831 15.6122 16.0338Z"/><path fill="#fff" d="M39.0893 17.9493H31.2242V25.6824H27.02V6.38513H31.2242V14.1182H39.0893V6.38513H43.2699V25.6588H39.0893V17.9493Z"/><path fill="#fff" d="M51.9382 22.1351C54.2293 22.1351 55.174 20.6926 55.174 17.2162V6.38513H68.4007V25.6588H64.1965V10.2399H59.2837V17.1689C59.2837 23.2939 57.158 25.8007 51.9619 25.8007V22.1351H51.9382Z"/><path fill="#fff" d="M90.6732 25.6588L88.9727 20.9527H81.7689L80.1155 25.6588H75.7224L82.9262 6.38513H87.7681L95.0664 25.6588H90.6732ZM82.9262 17.5H87.7681L85.3353 10.7838L82.9262 17.5Z"/><path fill="#fff" d="M102.412 6.38514H106.403V19.3446H106.427L115.284 6.38514H119.347V25.6588H115.355V12.5574H115.331L106.451 25.6588H102.412V6.38514ZM111.009 4.65878C108.293 4.65878 106.049 3.28716 106.049 0H109.002C109.002 1.58446 109.616 2.43581 111.009 2.43581C112.403 2.43581 113.017 1.58446 113.017 0H115.969C115.993 3.28716 113.749 4.65878 111.009 4.65878Z"/><path fill="#fff" d="M140.769 17.9493H132.904V25.6824H128.7V6.38513H132.904V14.1182H140.769V6.38513H144.95V25.6588H140.769V17.9493Z"/><path fill="#fff" d="M153.76 14.1183H161.271V17.9494H153.76V14.1183Z"/><path fill="#fff" d="M181.536 25.6588L174.285 16.4831V25.6588H170.057V6.38513H174.261V15.4426L181.465 6.38513H186.401L178.701 15.8919L186.543 25.6588H181.536Z"/><path fill="#fff" d="M193.723 6.38513H197.715V19.3446H197.738L206.595 6.38513H210.658V25.6588H206.666V12.5574H206.643L197.762 25.6588H193.723V6.38513Z"/><path fill="#fff" d="M232.08 17.9493H224.215V25.6824H220.011V6.38513H224.215V14.1182H232.08V6.38513H236.261V25.6588H232.08V17.9493Z"/><path fill="#fff" d="M243.417 16.0338C243.417 10.1926 247.74 5.95947 253.361 5.95947C259.006 5.95947 263.305 10.1926 263.305 16.0338C263.305 21.875 259.03 26.1081 253.361 26.1081C247.74 26.1081 243.417 21.8987 243.417 16.0338ZM259.053 16.0338C259.053 12.0845 256.29 9.83785 253.385 9.83785C250.432 9.83785 247.716 12.0845 247.716 16.0338C247.716 20.0068 250.48 22.2534 253.385 22.2534C256.29 22.2534 259.053 19.9831 259.053 16.0338Z"/><path fill="#fff" d="M273.815 10.2399H268.17V6.38513H283.641V10.2399H278.019V25.6824H273.839V10.2399H273.815Z"/><path fill="#fff" d="M290.254 6.38513H302.347V10.1926H294.482V14.1892H301.685V17.6892H294.482V21.8986H302.347V25.6824H290.254V6.38513Z"/><path fill="#fff" d="M324.029 25.6588L322.328 20.9527H315.125L313.471 25.6588H309.078L316.282 6.38513H321.124L328.422 25.6588H324.029ZM316.282 17.5H321.124L318.691 10.7838L316.282 17.5Z"/><path fill="#fff" d="M336.642 10.2399H330.997V6.38513H346.467V10.2399H340.846V25.6824H336.665V10.2399H336.642Z"/><path fill="#fff" d="M351.947 6.38513H357.615C362.906 6.38513 366 9.01013 366 13.1486C366 17.0507 363.119 20.1959 357.875 20.1959H356.151V25.6588H351.947V6.38513ZM361.749 13.3142C361.749 11.3041 360.237 10.2399 358.04 10.2399H356.151V16.4595H358.064C360.237 16.4595 361.749 15.3243 361.749 13.3142Z"/></g><defs><clipPath id="clip0_47_99"><rect width="366" height="126" fill="#fff"/></clipPath></defs></svg>