<svg width="250" height="86" viewBox="0 0 250 86" fill="none" xmlns="http://www.w3.org/2000/svg">
<mask id="mask0_129_582" style="mask-type:alpha" maskUnits="userSpaceOnUse" x="0" y="26" width="250" height="60">
<path d="M81.6588 28.4129V83.6414C81.6588 84.8709 80.6631 85.8711 79.4392 85.8711H65.1051C63.8812 85.8711 62.8855 84.8709 62.8855 83.6414V28.4129C62.8855 27.1834 63.8812 26.1831 65.1051 26.1831H79.4392C80.6631 26.1831 81.6588 27.1834 81.6588 28.4129ZM59.2501 83.3444L42.5512 54.67L58.3788 28.7932C59.136 27.6887 58.3529 26.1831 57.0201 26.1831H39.6314C39.0817 26.1831 38.5631 26.4592 38.2571 26.9177L25.9456 47.939H18.7733V28.4129C18.7733 27.1834 17.7776 26.1831 16.5537 26.1831H2.21961C0.995713 26.1831 0 27.1834 0 28.4129V83.6414C0 84.8709 0.995713 85.8711 2.21961 85.8711H16.5537C17.7776 85.8711 18.7733 84.8709 18.7733 83.6414V64.1986H27.5117L39.7352 85.0584C40.0359 85.5586 40.5753 85.8711 41.1561 85.8711H57.8395C59.1308 85.8711 59.9243 84.4489 59.2501 83.3444ZM247.144 85.8711C248.368 85.8711 249.364 84.8709 249.364 83.6414V28.4129C249.364 27.1834 248.368 26.1831 247.144 26.1831H233.417C232.193 26.1831 231.197 27.1834 231.197 28.4129V56.6653L206.092 26.1831H190.186C188.962 26.1831 187.967 27.1834 187.967 28.4129V83.6466C187.967 84.8761 188.957 85.8711 190.181 85.8711H203.965C205.189 85.8711 206.18 84.8761 206.18 83.6466V55.3837L231.005 85.8711H247.144ZM182.215 28.6473V83.4121C182.215 84.7719 181.116 85.8764 179.762 85.8764H89.8527C88.4991 85.8764 87.3997 84.7719 87.3997 83.4121V28.6473C87.3997 27.2876 88.4991 26.1831 89.8527 26.1831H179.768C181.121 26.1831 182.215 27.2876 182.215 28.6473ZM163.556 42.052C163.556 41.5571 163.105 41.1872 162.617 41.2862C152.904 43.2346 118.511 43.5316 106.977 41.2705C106.5 41.1768 106.059 41.5466 106.059 42.0416V69.1374C106.059 69.6167 106.479 69.9814 106.956 69.9137C116.519 68.4914 152.873 68.7259 162.685 69.945C163.152 70.0023 163.556 69.6376 163.556 69.1687V42.052Z" fill="white"/>
</mask>
<g mask="url(#mask0_129_582)">
<path d="M250.527 26.1831H0V85.8764H250.527V26.1831Z" fill="url(#paint0_linear_129_582)"/>
</g>
<path d="M0 10.9244C0 6.94466 2.94486 4.06055 6.77479 4.06055C10.6208 4.06055 13.5496 6.94466 13.5496 10.9244C13.5496 14.9042 10.6369 17.7883 6.77479 17.7883C2.94486 17.7883 0 14.9203 0 10.9244ZM10.6369 10.9244C10.6369 8.23364 8.75412 6.70297 6.77479 6.70297C4.76327 6.70297 2.91268 8.23364 2.91268 10.9244C2.91268 13.6313 4.79546 15.1619 6.77479 15.1619C8.75412 15.1619 10.6369 13.6152 10.6369 10.9244Z" fill="white"/>
<path d="M26.6327 12.229H21.2741V17.4978H18.4097V4.3501H21.2741V9.61883H26.6327V4.3501H29.4811V17.4817H26.6327V12.229Z" fill="white"/>
<path d="M35.3862 15.0809C36.9472 15.0809 37.5909 14.0981 37.5909 11.7295V4.3501H46.6024V17.4817H43.738V6.97641H40.3909V11.6973C40.3909 15.8704 38.9426 17.5783 35.4023 17.5783V15.0809H35.3862Z" fill="white"/>
<path d="M61.7776 17.4817L60.619 14.2753H55.7109L54.5844 17.4817H51.5913L56.4994 4.3501H59.7983L64.7708 17.4817H61.7776ZM56.4994 11.9229H59.7983L58.1408 7.34699L56.4994 11.9229Z" fill="white"/>
<path d="M69.7754 4.35033H72.495V13.1799H72.5111L78.5456 4.35033H81.3135V17.4819H78.5939V8.55565H78.5778L72.5271 17.4819H69.7754V4.35033ZM75.6329 3.17413C73.7823 3.17413 72.2536 2.23961 72.2536 0H74.2651C74.2651 1.07953 74.6835 1.65957 75.6329 1.65957C76.5824 1.65957 77.0008 1.07953 77.0008 0H79.0123C79.0284 2.23961 77.4996 3.17413 75.6329 3.17413Z" fill="white"/>
<path d="M95.9091 12.229H90.5504V17.4978H87.686V4.3501H90.5504V9.61883H95.9091V4.3501H98.7574V17.4817H95.9091V12.229Z" fill="white"/>
<path d="M104.76 9.61914H109.877V12.2293H104.76V9.61914Z" fill="white"/>
<path d="M123.684 17.4817L118.744 11.2301V17.4817H115.863V4.3501H118.728V10.5211L123.636 4.3501H126.999L121.753 10.8273L127.096 17.4817H123.684Z" fill="white"/>
<path d="M131.988 4.3501H134.708V13.1797H134.724L140.759 4.3501H143.526V17.4817H140.807V8.55542H140.791L134.74 17.4817H131.988V4.3501Z" fill="white"/>
<path d="M158.122 12.229H152.763V17.4978H149.898V4.3501H152.763V9.61883H158.122V4.3501H160.97V17.4817H158.122V12.229Z" fill="white"/>
<path d="M165.846 10.9244C165.846 6.94466 168.791 4.06055 172.62 4.06055C176.467 4.06055 179.395 6.94466 179.395 10.9244C179.395 14.9042 176.483 17.7883 172.62 17.7883C168.791 17.7883 165.846 14.9203 165.846 10.9244ZM176.499 10.9244C176.499 8.23364 174.616 6.70297 172.637 6.70297C170.625 6.70297 168.774 8.23364 168.774 10.9244C168.774 13.6313 170.657 15.1619 172.637 15.1619C174.616 15.1619 176.499 13.6152 176.499 10.9244Z" fill="white"/>
<path d="M186.556 6.97641H182.71V4.3501H193.25V6.97641H189.42V17.4978H186.572V6.97641H186.556Z" fill="white"/>
<path d="M197.756 4.3501H205.995V6.94418H200.637V9.66717H205.545V12.0518H200.637V14.9198H205.995V17.4978H197.756V4.3501Z" fill="white"/>
<path d="M220.768 17.4817L219.609 14.2753H214.701L213.575 17.4817H210.582L215.49 4.3501H218.789L223.761 17.4817H220.768ZM215.49 11.9229H218.789L217.131 7.34699L215.49 11.9229Z" fill="white"/>
<path d="M229.361 6.97641H225.515V4.3501H236.055V6.97641H232.226V17.4978H229.377V6.97641H229.361Z" fill="white"/>
<path d="M239.789 4.3501H243.651C247.256 4.3501 249.364 6.13857 249.364 8.95823C249.364 11.6168 247.401 13.7597 243.828 13.7597H242.653V17.4817H239.789V4.3501ZM246.467 9.07101C246.467 7.70146 245.437 6.97641 243.941 6.97641H242.653V11.214H243.957C245.437 11.214 246.467 10.4406 246.467 9.07101Z" fill="white"/>
<defs>
<linearGradient id="paint0_linear_129_582" x1="109.746" y1="114.061" x2="147.934" y2="-28.7545" gradientUnits="userSpaceOnUse">
<stop offset="0.036" stop-color="#3F71B6"/>
<stop offset="0.1012" stop-color="#3D59A5"/>
<stop offset="0.1939" stop-color="#3A3D91"/>
<stop offset="0.2473" stop-color="#393289"/>
<stop offset="0.4723" stop-color="#C12E7D"/>
<stop offset="0.5097" stop-color="#C62E68"/>
<stop offset="0.5647" stop-color="#CC2D50"/>
<stop offset="0.6274" stop-color="#D02D3E"/>
<stop offset="0.7015" stop-color="#D42C31"/>
<stop offset="0.7977" stop-color="#D52C29"/>
<stop offset="0.9973" stop-color="#D62C27"/>
</linearGradient>
</defs>
</svg>
