<svg width="109" height="48" viewBox="0 0 109 48" fill="none" xmlns="http://www.w3.org/2000/svg">
<g opacity="0.1">
<rect width="78.7127" height="47.0565" rx="5" fill="white"/>
<rect width="78.7127" height="47.0565" rx="5" fill="#F0F1F5"/>
<rect width="78.7127" height="47.0565" rx="5" fill="url(#paint0_linear_100_8)" fill-opacity="0.2"/>
</g>
<g opacity="0.2">
<rect x="10" width="78.7127" height="47.0565" rx="5" fill="white"/>
<rect x="10" width="78.7127" height="47.0565" rx="5" fill="#F0F1F5"/>
<rect x="10" width="78.7127" height="47.0565" rx="5" fill="url(#paint1_linear_100_8)" fill-opacity="0.2"/>
</g>
<g opacity="0.3">
<rect x="20" width="78.7127" height="47.0565" rx="5" fill="white"/>
<rect x="20" width="78.7127" height="47.0565" rx="5" fill="#F0F1F5"/>
<rect x="20" width="78.7127" height="47.0565" rx="5" fill="url(#paint2_linear_100_8)" fill-opacity="0.2"/>
</g>
<rect x="30" width="78.7127" height="47.0565" rx="5" fill="white"/>
<rect x="30" width="78.7127" height="47.0565" rx="5" fill="#F0F1F5"/>
<rect x="30" width="78.7127" height="47.0565" rx="5" fill="url(#paint3_linear_100_8)" fill-opacity="0.2"/>
<path d="M44.1854 8.55573C40.347 8.55573 38.5558 10.7328 38.5558 14.127V18.0655C38.5558 21.5884 39.1857 23.0926 41.7249 24.6858L43.6835 25.9029C45.2681 26.8629 45.4747 27.5753 45.4747 29.6336V33.107C45.4747 34.1164 45.0122 34.7398 44.1362 34.7398C43.2603 34.7398 42.7977 34.156 42.7977 33.107V27.6545H38.5558V33.1466C38.5558 36.5804 40.3077 38.7179 44.0968 38.7179C48.014 38.7179 49.8052 36.4518 49.8052 33.1466V28.8716C49.8052 25.606 48.9687 23.9238 46.5573 22.38L44.5988 21.1233C43.2209 20.2426 42.8863 19.6191 42.8863 17.353V14.1666C42.8863 13.1572 43.3489 12.5338 44.1756 12.5338C45.0515 12.5338 45.5535 13.1671 45.5535 14.1666V19.5697H49.8052V14.127C49.8052 10.7724 48.014 8.55573 44.1854 8.55573Z" fill="#FF2800"/>
<path d="M51.1437 13.1673H54.1455V38.3124H58.476V13.1673H61.4778V8.97156H51.1437V13.1673Z" fill="#FF2800"/>
<path d="M89.823 8.97156V13.1673H92.8248V38.3124H97.1553V13.1673H100.157V8.97156H89.823Z" fill="#FF2800"/>
<path d="M64.145 8.97156L61.7239 38.3024H66.015L66.6056 30.4651H69.755L70.3455 38.3024H74.7252L72.3139 8.97156H64.145ZM66.9107 26.487L67.9342 12.9496H68.446L69.4696 26.487H66.9107Z" fill="#FF2800"/>
<path d="M88.2384 36.0859V28.4563C88.2384 26.0219 87.323 24.6859 85.1086 24.2208V23.7162C87.3132 23.3797 88.4451 21.747 88.4451 19.1048V14.1272C88.4451 10.9012 86.5259 8.97156 82.8154 8.97156H76.9397V38.3025H81.2702V26.0318H83.8981V36.0859C83.8981 37.7582 84.6066 38.3025 84.6066 38.3025H88.9372C88.947 38.3124 88.2384 37.7681 88.2384 36.0859ZM84.1145 19.3225C84.1145 21.4203 83.652 22.0438 82.2347 22.0438H81.28V12.9595H82.402C83.7406 12.9595 84.1145 13.5038 84.1145 15.6809V19.3225Z" fill="#FF2800"/>
<defs>
<linearGradient id="paint0_linear_100_8" x1="79" y1="-3.68332e-06" x2="9.41127" y2="-11.2443" gradientUnits="userSpaceOnUse">
<stop stop-color="#F0F1F5"/>
<stop offset="1" stop-color="#BABECC"/>
</linearGradient>
<linearGradient id="paint1_linear_100_8" x1="89" y1="-3.68332e-06" x2="19.4113" y2="-11.2443" gradientUnits="userSpaceOnUse">
<stop stop-color="#F0F1F5"/>
<stop offset="1" stop-color="#BABECC"/>
</linearGradient>
<linearGradient id="paint2_linear_100_8" x1="99" y1="-3.68332e-06" x2="29.4113" y2="-11.2443" gradientUnits="userSpaceOnUse">
<stop stop-color="#F0F1F5"/>
<stop offset="1" stop-color="#BABECC"/>
</linearGradient>
<linearGradient id="paint3_linear_100_8" x1="109" y1="-3.68332e-06" x2="39.4113" y2="-11.2443" gradientUnits="userSpaceOnUse">
<stop stop-color="#F0F1F5"/>
<stop offset="1" stop-color="#BABECC"/>
</linearGradient>
</defs>
</svg>
